<?xml version="1.0" encoding="utf-8"?>
<!-- Generator: Adobe Illustrator 17.0.0, SVG Export Plug-In . SVG Version: 6.00 Build 0)  -->
<!DOCTYPE svg PUBLIC "-//W3C//DTD SVG 1.1//EN" "http://www.w3.org/Graphics/SVG/1.1/DTD/svg11.dtd">
<svg version="1.1" id="Layer_1" xmlns="http://www.w3.org/2000/svg" xmlns:xlink="http://www.w3.org/1999/xlink" x="0px" y="0px"
	 width="234.965px" height="497.203px" viewBox="0 0 234.965 497.203" enable-background="new 0 0 234.965 497.203"
	 xml:space="preserve">
<polyline fill="#28DF99" stroke="#FFFFFF" stroke-width="10" stroke-miterlimit="10" points="117.483,13.164 15.469,132.745 
	15.469,207.57 66.476,248.724 15.469,289.388 15.469,365.612 117.428,483.794 "/>
<polyline fill="#28DF99" stroke="#FFFFFF" stroke-width="10" stroke-miterlimit="10" points="117.483,13.409 219.497,132.99 
	219.497,207.815 168.49,248.969 219.497,289.633 219.497,365.857 117.538,484.039 "/>
<polygon fill="#28DF99" points="117.49,13.287 15.476,132.867 15.476,207.692 66.483,248.846 15.476,289.51 15.476,365.734 
	117.531,483.916 219.49,365.734 219.49,289.51 168.483,248.846 219.49,207.692 219.49,132.867 "/>
<polyline fill="none" stroke="#303960" stroke-width="10" stroke-linecap="round" stroke-miterlimit="10" points="117.428,133.444 
	117.483,208.269 168.49,248.969 "/>
<polyline fill="none" stroke="#303960" stroke-width="10" stroke-linecap="round" stroke-miterlimit="10" points="117.538,364.494 
	117.483,289.669 66.476,248.969 "/>
<polygon fill="none" stroke="#303960" stroke-width="10" stroke-miterlimit="10" points="117.49,13.287 15.476,132.867 
	15.476,207.692 66.483,248.846 15.476,289.51 15.476,365.734 117.531,483.916 219.49,365.734 219.49,289.51 168.483,248.846 
	219.49,207.692 219.49,132.867 "/>
</svg>
